<svg xmlns="http://www.w3.org/2000/svg" viewBox="0 0 120 140" width="120" height="140">
  <defs>
    <radialGradient id="coinG" cx="35%" cy="35%" r="70%">
      <stop offset="0%" stop-color="#FFE066"></stop>
      <stop offset="60%" stop-color="#F5B800"></stop>
      <stop offset="100%" stop-color="#CC8F00"></stop>
    </radialGradient>
    <linearGradient id="jarShade" x1="0" y1="0" x2="1" y2="0">
      <stop offset="0%" stop-color="rgba(27,58,75,0.08)"></stop>
      <stop offset="50%" stop-color="rgba(27,58,75,0)"></stop>
      <stop offset="100%" stop-color="rgba(27,58,75,0.08)"></stop>
    </linearGradient>
  </defs>
  
  <rect x="36" y="8" width="48" height="12" rx="2.5" fill="#FAF9F6" stroke="#1B3A4B" stroke-width="2"></rect>
  
  <path d="M24 22 Q20 22 20 30 L20 118 Q20 128 30 128 L90 128 Q100 128 100 118 L100 30 Q100 22 96 22 Z" fill="#FAF9F6" stroke="#1B3A4B" stroke-width="2.2"></path>
  <path d="M24 22 Q20 22 20 30 L20 118 Q20 128 30 128 L90 128 Q100 128 100 118 L100 30 Q100 22 96 22 Z" fill="url(#jarShade)"></path>
  
  <g>
    <circle cx="40" cy="116" r="9" fill="url(#coinG)" stroke="#B8860B" stroke-width="1.2"></circle>
    <circle cx="60" cy="116" r="9" fill="url(#coinG)" stroke="#B8860B" stroke-width="1.2"></circle>
    <circle cx="80" cy="116" r="9" fill="url(#coinG)" stroke="#B8860B" stroke-width="1.2"></circle>
    <circle cx="50" cy="100" r="9" fill="url(#coinG)" stroke="#B8860B" stroke-width="1.2"></circle>
    <circle cx="70" cy="100" r="9" fill="url(#coinG)" stroke="#B8860B" stroke-width="1.2"></circle>
    <circle cx="45" cy="84" r="9" fill="url(#coinG)" stroke="#B8860B" stroke-width="1.2"></circle>
    <circle cx="65" cy="84" r="9" fill="url(#coinG)" stroke="#B8860B" stroke-width="1.2"></circle>
    <circle cx="55" cy="68" r="9" fill="url(#coinG)" stroke="#B8860B" stroke-width="1.2"></circle>
    <text x="55" y="72" font-family="&#39;DM Sans&#39;" font-weight="700" font-size="10" fill="#8B6508" text-anchor="middle">₹</text>
  </g>
</svg>